<svg version="1.1" id="Layer_1" xmlns="http://www.w3.org/2000/svg" xmlns:xlink="http://www.w3.org/1999/xlink" x="0px" y="0px"
	 width="100%" viewBox="0 0 82 103" enable-background="new 0 0 82 103" xml:space="preserve">
<path fill="#FBFBFB" opacity="1.000000" stroke="none" 
	d="
M1.000000,96.000000 
	C1.000000,64.383774 1.000000,32.767551 1.000000,1.075664 
	C28.239178,1.075664 55.478611,1.075664 83.000000,1.075664 
	C83.000000,33.353683 83.000000,65.708183 82.599930,98.502121 
	C81.131958,98.957382 80.064064,98.973206 78.808517,98.734665 
	C78.015549,98.355545 77.410225,98.230782 76.473618,98.093201 
	C75.376244,98.376450 74.610153,98.672516 73.589653,98.754135 
	C72.190948,98.046600 71.046661,97.553505 69.442932,97.060730 
	C64.318077,97.390991 59.652676,97.720940 54.626839,97.976501 
	C53.538395,97.815811 52.810390,97.729523 52.099415,97.372009 
	C52.080158,96.741417 52.043873,96.382042 52.316452,95.866951 
	C53.754757,94.419533 54.653263,92.736191 56.056480,91.908783 
	C60.457069,89.313972 61.065231,85.943268 59.844090,81.175430 
	C57.624821,72.510490 56.050083,63.680462 54.223450,54.578712 
	C54.060371,53.820625 53.880211,53.403152 53.815361,52.600716 
	C54.846481,48.750412 55.762295,45.285080 56.760696,41.507244 
	C63.145790,43.272827 68.901459,44.864361 74.657120,46.455894 
	C74.973747,45.945610 75.290375,45.435322 75.607002,44.925037 
	C74.750664,43.848595 74.098701,42.424351 72.991974,41.774040 
	C71.151772,40.692749 69.065727,39.949612 67.000183,39.350243 
	C63.616604,38.368404 61.021511,36.993065 59.671234,33.217644 
	C59.114334,31.660526 56.124996,30.973373 54.184879,29.539143 
	C53.113110,28.114311 52.098461,27.040869 51.038555,25.522985 
	C50.127449,22.082369 53.063229,18.322214 49.120026,15.573572 
	C48.387112,14.853297 47.690411,14.496643 46.555191,14.068218 
	C45.734894,17.639772 45.353115,21.283096 44.650253,25.071423 
	C39.756916,28.802013 32.956833,29.480925 30.207436,35.885441 
	C29.282595,36.345238 28.645174,36.739391 27.663189,37.118759 
	C24.980394,38.978279 22.642162,40.852581 20.036339,42.749306 
	C19.118578,43.349255 18.468409,43.926785 17.525761,44.540184 
	C16.787016,44.934486 16.340752,45.292919 15.473829,45.690331 
	C13.369005,45.805500 11.684839,45.881691 9.670397,45.866653 
	C9.243095,46.182659 9.146071,46.589886 8.948112,47.387787 
	C8.050604,49.992336 6.221131,52.753674 11.328320,52.186172 
	C11.585377,52.897186 11.585377,53.396694 11.585377,52.628361 
	C11.277048,53.122532 11.629389,52.557819 12.321558,51.993698 
	C14.139006,50.674847 15.616624,49.355396 17.281044,48.063980 
	C17.742355,48.094749 17.960083,47.984928 18.530357,47.778992 
	C22.618805,46.035725 26.297930,44.276012 30.372597,42.528625 
	C33.149982,42.433640 35.531822,42.326336 37.978973,42.652435 
	C39.034336,44.512844 40.024395,45.939846 40.666786,47.662270 
	C39.736134,51.584385 39.153149,55.211075 38.349388,59.137787 
	C36.570091,67.232620 34.998055,75.024796 33.475586,82.826645 
	C33.335228,83.545898 33.263680,84.456528 33.579552,85.058090 
	C35.693623,89.084198 37.921467,93.050560 39.805443,97.257004 
	C38.032593,97.716835 36.566692,97.955963 34.830551,98.121758 
	C34.373951,98.059250 34.187595,98.070084 33.755592,97.992996 
	C33.336628,97.919708 33.163307,97.934326 32.689041,97.661835 
	C27.113596,97.338821 21.839092,97.302925 16.150431,97.330093 
	C10.824182,96.928772 5.912091,96.464386 1.000000,96.000000 
M7.566409,45.715492 
	C7.520123,45.773632 7.473836,45.831768 7.566409,45.715492 
z"/>
<path fill="#CBCBCB" opacity="1.000000" stroke="none" 
	d="
M54.987274,98.050896 
	C59.652676,97.720940 64.318077,97.390991 69.407089,97.417648 
	C67.547386,98.517273 65.264091,99.260292 62.640305,100.018761 
	C61.484947,100.745369 60.670078,101.456528 59.821377,102.490402 
	C60.191696,103.208740 60.595848,103.604370 61.000000,104.000000 
	C56.310745,104.000000 51.621487,104.000000 46.470436,103.638245 
	C46.710155,102.503517 47.411667,101.730545 48.421654,100.893982 
	C49.483624,100.522430 50.237118,100.214470 51.341202,99.964348 
	C52.790287,99.365089 53.888783,98.707993 54.987274,98.050896 
z"/>
<path fill="#E8E8E8" opacity="1.000000" stroke="none" 
	d="
M16.564589,97.267029 
	C21.839092,97.302925 27.113596,97.338821 32.651360,97.915520 
	C32.913803,98.627281 32.912979,98.798241 32.690262,99.025734 
	C32.468369,99.082260 32.029125,99.211868 31.794624,99.130920 
	C31.560123,99.049973 31.064810,99.057991 30.642477,99.020416 
	C28.806229,99.000786 27.392315,99.018723 25.600433,98.999336 
	C21.080374,99.735138 23.684668,102.145279 24.000000,104.000000 
	C20.638712,104.000000 17.277426,104.000000 13.799301,103.826950 
	C12.459573,103.043137 11.236679,102.432388 9.968443,101.531738 
	C8.938510,100.420708 7.953918,99.599579 7.369707,98.704910 
	C10.670771,97.977951 14.248050,101.685814 16.564589,97.267029 
z"/>
<path fill="#EFEFEF" opacity="1.000000" stroke="none" 
	d="
M62.980793,100.003319 
	C65.264091,99.260292 67.547386,98.517273 69.866531,97.417328 
	C71.046661,97.553505 72.190948,98.046600 73.631210,99.082794 
	C73.948097,99.845634 73.968994,100.065361 73.651978,100.429642 
	C73.209373,101.716118 73.104691,102.858063 73.000000,104.000000 
	C69.969406,104.000000 66.938812,104.000000 63.781448,103.840347 
	C63.540192,103.248482 63.425709,102.816277 63.406197,101.979256 
	C63.327709,101.050735 63.154251,100.527023 62.980793,100.003319 
z"/>
<path fill="#464646" opacity="1.000000" stroke="none" 
	d="
M16.150431,97.330093 
	C14.248050,101.685814 10.670771,97.977951 7.030230,98.545715 
	C4.526915,98.306702 2.763457,98.153351 1.000000,98.000000 
	C1.000000,97.555557 1.000000,97.111107 1.000000,96.333328 
	C5.912091,96.464386 10.824182,96.928772 16.150431,97.330093 
z"/>
<path fill="#D8D8D8" opacity="1.000000" stroke="none" 
	d="
M48.113178,100.957565 
	C47.411667,101.730545 46.710155,102.503517 46.004322,103.638245 
	C44.611111,104.000000 43.222221,104.000000 41.477142,103.643623 
	C40.778206,102.203255 40.435455,101.119263 39.869713,99.977615 
	C39.345959,99.803947 39.120869,99.603104 39.302406,99.197968 
	C40.093269,99.003242 40.553181,98.927986 41.413288,98.923767 
	C43.913383,99.649055 46.013283,100.303307 48.113178,100.957565 
z"/>
<path fill="#DADADA" opacity="1.000000" stroke="none" 
	d="
M1.000000,98.375000 
	C2.763457,98.153351 4.526915,98.306702 6.629850,98.619247 
	C7.953918,99.599579 8.938510,100.420708 9.707047,101.612251 
	C9.317143,102.037659 9.143291,102.092651 8.574665,102.043427 
	C5.786595,101.626137 3.393297,101.313065 1.000000,101.000000 
	C1.000000,100.250000 1.000000,99.500000 1.000000,98.375000 
z"/>
<path fill="#F8F8F8" opacity="1.000000" stroke="none" 
	d="
M83.000000,101.000000 
	C83.000000,101.953384 83.000000,102.906769 83.000000,104.000000 
	C80.663956,104.000000 78.326706,104.000000 75.408310,103.612366 
	C74.630600,102.457298 74.434052,101.689865 74.689621,100.989937 
	C75.747726,101.049500 76.353722,101.041550 77.390167,101.089973 
	C79.547073,101.097565 81.273537,101.048782 83.000000,101.000000 
z"/>
<path fill="#1E1E1E" opacity="1.000000" stroke="none" 
	d="
M1.000000,101.500000 
	C3.393297,101.313065 5.786595,101.626137 8.463299,102.281052 
	C8.497804,103.081940 8.248901,103.540970 8.000000,104.000000 
	C6.000000,104.000000 3.989282,104.107285 2.009047,103.909447 
	C1.613061,103.869896 1.333333,102.666664 1.000000,101.500000 
z"/>
<path fill="#EFEFEF" opacity="1.000000" stroke="none" 
	d="
M38.971451,99.317444 
	C39.120869,99.603104 39.345959,99.803947 39.863098,100.379745 
	C40.052979,101.893028 40.026489,102.946510 40.000000,104.000000 
	C38.933323,104.000000 37.866650,104.000000 36.315815,103.658768 
	C35.937855,102.157448 36.044052,100.997353 36.356239,99.731186 
	C37.365303,99.522552 38.168377,99.419998 38.971451,99.317444 
z"/>
<path fill="#797979" opacity="1.000000" stroke="none" 
	d="
M36.150246,99.837265 
	C36.044052,100.997353 35.937855,102.157448 35.915829,103.658768 
	C34.933331,104.000000 33.866661,104.000000 32.300079,103.752457 
	C31.888458,102.664551 31.976748,101.824181 32.489223,100.958984 
	C33.978832,100.611519 35.044250,100.288879 36.119850,99.934013 
	C36.130032,99.901779 36.150246,99.837265 36.150246,99.837265 
z"/>
<path fill="#A5A5A5" opacity="1.000000" stroke="none" 
	d="
M24.333332,104.000000 
	C23.684668,102.145279 21.080374,99.735138 25.609257,99.233688 
	C25.996046,99.505379 25.985214,99.974792 25.908113,100.372986 
	C25.887342,101.847450 25.943670,102.923721 26.000000,104.000000 
	C25.555555,104.000000 25.111111,104.000000 24.333332,104.000000 
z"/>
<path fill="#292929" opacity="1.000000" stroke="none" 
	d="
M8.416666,104.000000 
	C8.248901,103.540970 8.497804,103.081940 8.858072,102.385284 
	C9.143291,102.092651 9.317143,102.037659 9.752390,101.902145 
	C11.236679,102.432388 12.459573,103.043137 13.341232,103.826950 
	C11.611111,104.000000 10.222222,104.000000 8.416666,104.000000 
z"/>
<path fill="#696969" opacity="1.000000" stroke="none" 
	d="
M83.000000,100.666672 
	C81.273537,101.048782 79.547073,101.097565 77.461624,100.897285 
	C77.102631,100.648232 77.013420,100.247391 77.316109,100.154129 
	C78.077919,99.703590 78.537048,99.346313 78.996170,98.989029 
	C80.064064,98.973206 81.131958,98.957382 82.599930,98.970779 
	C83.000000,99.444443 83.000000,99.888893 83.000000,100.666672 
z"/>
<path fill="#CECECE" opacity="1.000000" stroke="none" 
	d="
M32.065033,100.983818 
	C31.976748,101.824181 31.888458,102.664551 31.900085,103.752457 
	C31.250000,104.000000 30.500000,104.000000 29.388184,103.694946 
	C29.269636,102.620293 29.512903,101.850685 30.015253,100.933388 
	C30.525812,100.484451 30.777288,100.183205 31.261822,99.944321 
	C31.494883,100.006691 31.975571,100.048691 31.997576,100.282501 
	C32.019581,100.516319 32.065037,100.983818 32.065033,100.983818 
z"/>
<path fill="#F5F5F5" opacity="1.000000" stroke="none" 
	d="
M26.333332,104.000000 
	C25.943670,102.923721 25.887342,101.847450 26.232555,100.397858 
	C27.147430,100.369156 27.660763,100.713768 28.102867,101.421600 
	C28.021093,102.523209 28.010548,103.261604 28.000000,104.000000 
	C27.555555,104.000000 27.111111,104.000000 26.333332,104.000000 
z"/>
<path fill="#696969" opacity="1.000000" stroke="none" 
	d="
M74.237503,100.922432 
	C74.434052,101.689865 74.630600,102.457298 74.913574,103.612366 
	C74.555557,104.000000 74.111107,104.000000 73.333328,104.000000 
	C73.104691,102.858063 73.209373,101.716118 73.614304,100.559006 
	C73.915550,100.761047 74.023201,100.887245 74.237503,100.922432 
z"/>
<path fill="#8B8B8B" opacity="1.000000" stroke="none" 
	d="
M63.311230,102.384071 
	C63.425709,102.816277 63.540192,103.248482 63.327335,103.840347 
	C62.555553,104.000000 62.111111,104.000000 61.333332,104.000000 
	C60.595848,103.604370 60.191696,103.208740 60.256615,102.446953 
	C61.587532,102.181892 62.449379,102.282982 63.311230,102.384071 
z"/>
<path fill="#A5A5A5" opacity="1.000000" stroke="none" 
	d="
M28.250000,104.000000 
	C28.010548,103.261604 28.021093,102.523209 28.366959,101.411438 
	C29.053577,101.052399 29.404873,101.066742 29.756170,101.081078 
	C29.512903,101.850685 29.269636,102.620293 29.013184,103.694946 
	C29.000000,104.000000 28.500000,104.000000 28.250000,104.000000 
z"/>
<path fill="#8B8B8B" opacity="1.000000" stroke="none" 
	d="
M40.250000,104.000000 
	C40.026489,102.946510 40.052979,101.893028 40.086090,100.437408 
	C40.435455,101.119263 40.778206,102.203255 41.060478,103.643623 
	C41.000000,104.000000 40.500000,104.000000 40.250000,104.000000 
z"/>
<path fill="#070707" opacity="1.000000" stroke="none" 
	d="
M48.421654,100.893982 
	C46.013283,100.303307 43.913383,99.649055 41.398033,98.650566 
	C40.692520,97.882988 40.402454,97.459648 40.112392,97.036308 
	C37.921467,93.050560 35.693623,89.084198 33.579552,85.058090 
	C33.263680,84.456528 33.335228,83.545898 33.475586,82.826645 
	C34.998055,75.024796 36.570091,67.232620 38.759666,59.153526 
	C42.746979,58.869251 46.103230,58.869251 49.459484,58.869251 
	C49.659561,58.317108 49.859638,57.764969 50.059719,57.212826 
	C44.110489,57.027477 39.947166,55.364609 41.747284,48.630474 
	C41.836082,48.298302 41.273643,47.792042 41.014454,47.366848 
	C40.024395,45.939846 39.034336,44.512844 37.985275,42.279354 
	C34.541283,36.219334 32.426834,40.645157 29.977055,42.516300 
	C26.297930,44.276012 22.618805,46.035725 18.488333,47.235184 
	C17.964069,45.951389 17.891155,45.227856 17.818241,44.504318 
	C18.468409,43.926785 19.118578,43.349255 20.448711,42.825089 
	C24.893784,42.726185 27.188295,40.812996 28.007753,37.133545 
	C28.645174,36.739391 29.282595,36.345238 30.590878,35.916576 
	C35.748352,32.390896 40.041985,28.278776 45.339958,31.351091 
	C45.205048,28.999762 45.088192,26.963091 44.971340,24.926422 
	C45.353115,21.283096 45.734894,17.639772 46.613312,14.386269 
	C47.792049,15.163123 48.474148,15.550157 49.156242,15.937191 
	C53.063229,18.322214 50.127449,22.082369 50.788780,25.692657 
	C50.720520,28.059082 50.856781,29.811394 51.038624,32.149967 
	C52.081783,31.414198 53.161892,30.652365 54.242001,29.890533 
	C56.124996,30.973373 59.114334,31.660526 59.671234,33.217644 
	C61.021511,36.993065 63.616604,38.368404 67.000183,39.350243 
	C69.065727,39.949612 71.151772,40.692749 72.991974,41.774040 
	C74.098701,42.424351 74.750664,43.848595 75.607002,44.925037 
	C75.290375,45.435322 74.973747,45.945610 74.657120,46.455894 
	C68.901459,44.864361 63.145790,43.272827 56.760696,41.507244 
	C55.762295,45.285080 54.846481,48.750412 53.478546,52.594673 
	C52.352768,52.979713 51.679115,52.985825 50.845493,52.746044 
	C49.962490,52.260853 49.239456,52.021553 48.516418,51.782257 
	C48.459728,52.060238 48.403038,52.338219 48.346344,52.616199 
	C49.227921,52.747135 50.109501,52.878067 51.056442,53.365997 
	C52.149994,54.121769 53.178181,54.520550 54.206364,54.919331 
	C56.050083,63.680462 57.624821,72.510490 59.844090,81.175430 
	C61.065231,85.943268 60.457069,89.313972 56.056480,91.908783 
	C54.653263,92.736191 53.754757,94.419533 51.931660,95.862671 
	C51.165039,96.659195 51.092072,97.304298 51.015095,98.275589 
	C51.004261,99.036697 50.997437,99.471603 50.990612,99.906509 
	C50.237118,100.214470 49.483624,100.522430 48.421654,100.893982 
z"/>
<path fill="#101010" opacity="1.000000" stroke="none" 
	d="
M40.666786,47.662270 
	C41.273643,47.792042 41.836082,48.298302 41.747284,48.630474 
	C39.947166,55.364609 44.110489,57.027477 50.059719,57.212826 
	C49.859638,57.764969 49.659561,58.317108 49.459484,58.869251 
	C46.103230,58.869251 42.746979,58.869251 38.980446,58.853508 
	C39.153149,55.211075 39.736134,51.584385 40.666786,47.662270 
z"/>
<path fill="#101010" opacity="1.000000" stroke="none" 
	d="
M44.650253,25.071423 
	C45.088192,26.963091 45.205048,28.999762 45.339958,31.351091 
	C40.041985,28.278776 35.748352,32.390896 30.878296,35.850933 
	C32.956833,29.480925 39.756916,28.802013 44.650253,25.071423 
z"/>
<path fill="#070707" opacity="1.000000" stroke="none" 
	d="
M11.071263,51.974667 
	C6.221131,52.753674 8.050604,49.992336 9.160738,47.269234 
	C9.741279,46.552700 9.916738,46.285324 10.000674,45.957882 
	C11.684839,45.881691 13.369005,45.805500 15.517769,46.039608 
	C16.352993,46.911919 16.723616,47.473930 17.094240,48.035946 
	C15.616624,49.355396 14.139006,50.674847 12.094347,51.969101 
	C11.527307,51.943913 11.071263,51.974667 11.071263,51.974667 
z"/>
<path fill="#101010" opacity="1.000000" stroke="none" 
	d="
M30.372597,42.528625 
	C32.426834,40.645157 34.541283,36.219334 37.919968,41.845951 
	C35.531822,42.326336 33.149982,42.433640 30.372597,42.528625 
z"/>
<path fill="#101010" opacity="1.000000" stroke="none" 
	d="
M27.663189,37.118759 
	C27.188295,40.812996 24.893784,42.726185 20.716303,42.802670 
	C22.642162,40.852581 24.980394,38.978279 27.663189,37.118759 
z"/>
<path fill="#101010" opacity="1.000000" stroke="none" 
	d="
M54.184879,29.539143 
	C53.161892,30.652365 52.081783,31.414198 51.038624,32.149967 
	C50.856781,29.811394 50.720520,28.059082 50.834038,26.137100 
	C52.098461,27.040869 53.113110,28.114311 54.184879,29.539143 
z"/>
<path fill="#151515" opacity="1.000000" stroke="none" 
	d="
M39.805443,97.257004 
	C40.402454,97.459648 40.692520,97.882988 40.997841,98.579529 
	C40.553181,98.927986 40.093269,99.003242 39.302406,99.197968 
	C38.168377,99.419998 37.365303,99.522552 36.356239,99.731186 
	C36.150246,99.837265 36.130032,99.901779 36.072884,99.752380 
	C35.710758,99.133682 35.405773,98.664391 35.100788,98.195091 
	C36.566692,97.955963 38.032593,97.716835 39.805443,97.257004 
z"/>
<path fill="#B2B2B2" opacity="1.000000" stroke="none" 
	d="
M74.689621,100.989937 
	C74.023201,100.887245 73.915550,100.761047 73.952217,100.414459 
	C73.968994,100.065361 73.948097,99.845634 73.885635,99.297241 
	C74.610153,98.672516 75.376244,98.376450 76.532333,98.446541 
	C76.952705,99.290932 76.983063,99.769157 77.013428,100.247391 
	C77.013420,100.247391 77.102631,100.648232 77.031174,100.840919 
	C76.353722,101.041550 75.747726,101.049500 74.689621,100.989937 
z"/>
<path fill="#696969" opacity="1.000000" stroke="none" 
	d="
M34.830551,98.121758 
	C35.405773,98.664391 35.710758,99.133682 36.062706,99.784615 
	C35.044250,100.288879 33.978832,100.611519 32.489227,100.958984 
	C32.065037,100.983818 32.019581,100.516319 32.015282,100.073257 
	C32.010979,99.630196 32.029125,99.211868 32.029125,99.211868 
	C32.029125,99.211868 32.468369,99.082260 32.916389,98.940475 
	C33.634033,98.610306 33.846306,98.371048 34.001236,98.080910 
	C34.187595,98.070084 34.373951,98.059250 34.830551,98.121758 
z"/>
<path fill="#151515" opacity="1.000000" stroke="none" 
	d="
M51.341202,99.964348 
	C50.997437,99.471603 51.004261,99.036697 51.290314,98.231697 
	C51.740494,97.788818 51.911438,97.716034 52.082386,97.643234 
	C52.810390,97.729523 53.538395,97.815811 54.626839,97.976501 
	C53.888783,98.707993 52.790287,99.365089 51.341202,99.964348 
z"/>
<path fill="#101010" opacity="1.000000" stroke="none" 
	d="
M17.281044,48.063980 
	C16.723616,47.473930 16.352993,46.911919 15.938429,46.000626 
	C16.340752,45.292919 16.787016,44.934486 17.525761,44.540184 
	C17.891155,45.227856 17.964069,45.951389 18.079010,47.218735 
	C17.960083,47.984928 17.742355,48.094749 17.281044,48.063980 
z"/>
<path fill="#101010" opacity="1.000000" stroke="none" 
	d="
M54.223450,54.578712 
	C53.178181,54.520550 52.149994,54.121769 51.060722,53.361691 
	C50.999634,53.000393 51.005463,52.991936 51.005463,52.991936 
	C51.679115,52.985825 52.352768,52.979713 53.363235,52.979641 
	C53.880211,53.403152 54.060371,53.820625 54.223450,54.578712 
z"/>
<path fill="#101010" opacity="1.000000" stroke="none" 
	d="
M49.120026,15.573572 
	C48.474148,15.550157 47.792049,15.163123 47.051834,14.458039 
	C47.690411,14.496643 48.387112,14.853297 49.120026,15.573572 
z"/>
<path fill="#EFEFEF" opacity="1.000000" stroke="none" 
	d="
M77.316116,100.154129 
	C76.983063,99.769157 76.952705,99.290932 76.863632,98.459366 
	C77.410225,98.230782 78.015549,98.355545 78.808517,98.734673 
	C78.537048,99.346313 78.077919,99.703590 77.316116,100.154129 
z"/>
<path fill="#101010" opacity="1.000000" stroke="none" 
	d="
M11.328320,52.186172 
	C11.071263,51.974667 11.527307,51.943913 11.754518,51.968510 
	C11.629389,52.557819 11.277048,53.122532 11.585377,52.628361 
	C11.585377,53.396694 11.585377,52.897186 11.328320,52.186172 
z"/>
<path fill="#CBCBCB" opacity="1.000000" stroke="none" 
	d="
M52.099415,97.372017 
	C51.911438,97.716034 51.740494,97.788818 51.294327,97.905502 
	C51.092072,97.304298 51.165039,96.659195 51.622795,96.018387 
	C52.043873,96.382042 52.080158,96.741417 52.099415,97.372017 
z"/>
<path fill="#101010" opacity="1.000000" stroke="none" 
	d="
M7.496980,45.802700 
	C7.473836,45.831768 7.520123,45.773632 7.496980,45.802700 
z"/>
<path fill="#797979" opacity="1.000000" stroke="none" 
	d="
M33.755592,97.992996 
	C33.846306,98.371048 33.634033,98.610306 33.138283,98.883942 
	C32.912979,98.798241 32.913803,98.627281 32.952301,98.202637 
	C33.163307,97.934326 33.336628,97.919708 33.755592,97.992996 
z"/>
<path fill="#101010" opacity="1.000000" stroke="none" 
	d="
M9.670397,45.866653 
	C9.916738,46.285324 9.741279,46.552700 9.261673,46.878563 
	C9.146071,46.589886 9.243095,46.182659 9.670397,45.866653 
z"/>
<path fill="#5E5E5E" opacity="1.000000" stroke="none" 
	d="
M63.406197,101.979256 
	C62.449379,102.282982 61.587532,102.181892 60.290443,102.124245 
	C60.670078,101.456528 61.484947,100.745369 62.640305,100.018761 
	C63.154251,100.527023 63.327709,101.050735 63.406197,101.979256 
z"/>
<path fill="#BDBDBD" opacity="1.000000" stroke="none" 
	d="
M30.015253,100.933388 
	C29.404873,101.066742 29.053577,101.052399 28.438187,101.048218 
	C27.660763,100.713768 27.147430,100.369156 26.309656,99.999664 
	C25.985214,99.974792 25.996046,99.505379 25.987223,99.271027 
	C27.392315,99.018723 28.806229,99.000786 30.611675,99.225204 
	C31.003206,99.467575 31.028765,99.881958 31.028763,99.881958 
	C30.777288,100.183205 30.525812,100.484451 30.015253,100.933388 
z"/>
<path fill="#797979" opacity="1.000000" stroke="none" 
	d="
M31.261824,99.944321 
	C31.028765,99.881958 31.003206,99.467575 31.034008,99.262787 
	C31.064810,99.057991 31.560123,99.049973 31.794624,99.130920 
	C32.029125,99.211868 32.010979,99.630196 31.993275,99.839447 
	C31.975571,100.048691 31.494883,100.006691 31.261824,99.944321 
z"/>
<path fill="#101010" opacity="1.000000" stroke="none" 
	d="
M50.995354,53.004700 
	C50.109501,52.878067 49.227921,52.747135 48.346344,52.616199 
	C48.403038,52.338219 48.459728,52.060238 48.516418,51.782257 
	C49.239456,52.021553 49.962490,52.260853 50.845493,52.746044 
	C51.005463,52.991936 50.999634,53.000393 50.995354,53.004700 
z"/>
</svg>